<svg id="SvgjsSvg1001" width="288" height="288" xmlns="http://www.w3.org/2000/svg" version="1.1" xmlns:xlink="http://www.w3.org/1999/xlink" xmlns:svgjs="http://svgjs.com/svgjs"><defs id="SvgjsDefs1002"></defs><g id="SvgjsG1008" transform="matrix(1,0,0,1,0,0)"><svg xmlns="http://www.w3.org/2000/svg" viewBox="0 0 24 24" width="288" height="288"><path d="M2.8 0c-.02.03.03.12.18.3.1.11.16.23.24.44a2 2 0 0 0 .14.35c.04.05.04.04.04-.1V.81l.22.3a3.98 3.98 0 0 0 .77.9 2.6 2.6 0 0 1-.68-.38 1.19 1.19 0 0 0-.2-.14c-.02 0-.07-.05-.11-.1a1.03 1.03 0 0 0-.21-.2 1.56 1.56 0 0 1-.4-.37c-.03-.06-.12-.1-.12-.05s.24.38.43.58c.59.62 1.18.93 2.77 1.43l.66.23a.19.19 0 0 0 .11.04.25.25 0 0 1 .1.03c.05.03.04.03 0 .03s-.06.02-.05.06c.01.05.16.1.45.14.13.02.16.01.16-.02 0-.05-.1-.08-.22-.08-.05 0-.09-.02-.09-.04s.03-.02.07-.02l.28.06c.28.04.36.07.36.13 0 .07.08.1.13.05.03-.03.05-.03.05 0s.01.03.03.03.03-.02.03-.05c0-.05-.03-.05.49.02.3.05.42.08.37.1-.1.03-.04.08.1.08.07 0 .12.02.12.04s.07.03.24.01c.16 0 .25 0 .26.02s.07.02.12.01.2 0 .31.03c.31.06 1.14.1 2.98.17 2.98.1 5.16.33 5.97.61.37.13.91.4 1.01.51a.6.6 0 0 1 .2.54.8.8 0 0 0 0 .22c.08.09.28-.09.28-.25 0-.04.06-.12.15-.2.33-.28.38-.45.34-1.11a3.35 3.35 0 0 0-.23-1.13c-.26-.86-.32-1-.64-1.33a2.7 2.7 0 0 0-1.16-.76 17.7 17.7 0 0 1-.52-.19c-.24-.1-.42-.14-.78-.2C17.03.5 15.93.46 15.59.5c-.12 0-.61 0-1.15-.04L13.37.42a2.21 2.21 0 0 1-.3.04.4.4 0 0 0-.29.1c-.12.08-.21.11-.56.17l-1.08.22c-.12.04-.32.07-.62.09l-1.41.13a4.7 4.7 0 0 1-.8.01c-.54 0-.68 0-.7.03s-.02.04.05.04a39.51 39.51 0 0 1 1.81.14c.02.02-.27 0-1.1-.05a3.22 3.22 0 0 0-.47 0c-.06.03-.5.03-.9-.02a10.21 10.21 0 0 1-1.48-.25 3.86 3.86 0 0 0-.64-.1A2.95 2.95 0 0 1 3.7.59C3.38.43 3.34.42 3.34.55v.1l-.1-.12A1.18 1.18 0 0 1 3.1.3C3.04.2 2.83-.02 2.8 0zm.46 3.19c-.57.03-1.1.47-1.47 1.26-.22.48-.26.66-.28 1.3-.01.5 0 .6.06 1 .15.87.2.97.51 1.28.33.33 1.17.78 1.63.89l.41.1c.26.06.61.08 1.49.1.84 0 .91 0 1.03-.05.08-.04.25-.07.49-.09l.47-.06a1.35 1.35 0 0 1 .28-.03c.1 0 .19-.02.2-.04.08-.07.43-.15.76-.17.2 0 .37-.03.4-.04.1-.06.05-.09-.12-.07a.5.5 0 0 1-.22-.01c-.05-.03-.03-.04.09-.04a3.76 3.76 0 0 0 .33-.02c.17-.02.18-.03.14-.06-.12-.08-.02-.1.5-.1.45 0 .58-.03.45-.08a1.24 1.24 0 0 0-.26-.02c-.11 0-.16-.01-.11-.02l.25-.04c.1-.02.63-.04 1.2-.04l1.07-.02c.03 0 .04-.02.03-.06-.02-.04-.01-.06.02-.06s.09-.05.13-.11c.1-.12.12-.11.16.04l.03.1.22.01c.17.01.23 0 .29-.04a.53.53 0 0 1 .18-.08l.12-.02-.02.18c-.02.14-.02.17.02.16a2.71 2.71 0 0 1 .22-.06l.17-.03-.06-.1a.42.42 0 0 0-.2-.1l-.12-.04h.18a4.81 4.81 0 0 1 .3 0c.07 0 .12-.01.12-.03s-.02-.04-.04-.04h-.15a.66.66 0 0 1-.21-.08.44.44 0 0 0-.16-.07c-.03 0-.05-.01-.05-.03 0-.02.09-.03.25-.02.25 0 .25 0 .26.09.01.1.01.1.08.07a.05.05 0 0 0 .03-.06c-.02-.05.04-.1.08-.06l.16.03 1.18.1c.11 0 .16.02.16.05 0 .06.04.06.09.01.02-.02.14-.02.43 0 .36.04.4.05.4.1 0 .04.02.06.07.06l.28.03c.11.02.24.01.26 0s.09-.1.15-.2c.12-.2.22-.32.26-.32.01 0 .02.02 0 .04s0 .05.02.05.04.02.03.05c0 .04.02.06.1.08.1.02.16.05.08.05-.03 0-.05.02-.05.04s.18.1.44.19c.28.1.45.16.45.19s-.1 0-.36-.08c-.63-.22-.9-.26-.9-.16 0 .05.05.07.28.13l.33.06a.34.34 0 0 1 .13.08c.05.04.3.14.56.23s.52.19.57.23a.83.83 0 0 0 .19.12c.2.08.47.33.68.6.3.41.3.4.13.4-.08 0-.3-.02-.48-.05a7.1 7.1 0 0 0-.53-.05l-2.63.05-.45.02-.06-.15a1.54 1.54 0 0 0-.26-.33c-.17-.18-.18-.18-.22-.12l-.2.28-.17.22-.2.01h-.25c-.07 0-.07.03-.01.15l.04.08-.31.02a36.92 36.92 0 0 0-3.27.41 4.47 4.47 0 0 1-.68.05c-.46 0-.5.02-.8.19-.04.03-.08.03-.12.01s-.06-.01-.09.02c-.03.04-.14.05-.95.14l-.66.09c-.34.05-.35.05-.53 0a7.76 7.76 0 0 0-1.25-.17l-.27-.02-.16.15a2.48 2.48 0 0 0-.29.3c-.1.13-.14.17-.2.17-.13 0-1.24.17-2.06.32-.87.16-1.2.19-1.46.14-.27-.06-.27-.06-.26-.4.01-.28.01-.3-.06-.33-.17-.08-.33-.03-.56.16a.28.28 0 0 1-.2.07.76.76 0 0 0-.3.08l-.18.08.01.16a.52.52 0 0 1-.02.22c-.02.04-.03.2-.02.47.01.33 0 .45-.04.6l-.05.2.15.21.5.77.2.21c.51.45.73.57 1.23.67.52.12.61.1.94-.07a2.45 2.45 0 0 0 .39-.25c.08-.08.3-.2.74-.39l.76-.3.1.92c.1 1.02.14 2 .1 2.76-.04.6-.07.67-.49 1.46a17.07 17.07 0 0 1-2 3.05 5.14 5.14 0 0 0-.36.46c-.17.25-.48.6-.87.94-.13.12-.22.22-.2.25s.1.07.2.1.2.09.23.1c.05.05.1.03.33-.09l.22-.12.1.06c.1.07.3.08.46.02.06-.03.19-.06.28-.06a.88.88 0 0 0 .52-.23.82.82 0 0 1 .21-.12c.1-.01.86-.8 1.27-1.28.13-.15.45-.5.72-.76.38-.37.55-.51.76-.64.31-.18.56-.4.59-.54a1.13 1.13 0 0 1 .09-.21c.1-.16.2-.58.17-.69a1.27 1.27 0 0 0-.1-.23c-.08-.14-.08-.19-.1-.58a2.7 2.7 0 0 0-.49-1.6c-.2-.3-.25-.42-.37-.82-.21-.7-.27-1.35-.17-1.86.05-.26.07-.3.28-.41l.32-.23.12-.12.6-.06.8-.12.6-.12.64-.16a5.13 5.13 0 0 1 .47-.14c.22-.05.95-.12.98-.1l.01.98-.08 1.66a22.24 22.24 0 0 0-.17 2.53c-.03 1.14-.04 1.2-.23 1.33-.13.1-.27.08-.68-.1a39.3 39.3 0 0 0-.95-.4 18.37 18.37 0 0 1-1-.43l-.42-.2.26.34.26.33c0 .01-.03.02-.07.02-.05 0-.06 0-.01.06.02.04.03.1.02.17 0 .08 0 .11.06.15.04.03.1.1.15.17a.73.73 0 0 0 .14.18.66.66 0 0 1 .13.16c.03.06.13.17.23.24a.89.89 0 0 1 .21.21c.02.05.11.11.22.17.24.12.6.43.65.57.04.08.1.15.3.28.16.1.43.34.74.65.56.55.59.57 1.04.54.3-.02.44-.08.62-.24l.18-.15a.83.83 0 0 0 .17-.2.8.8 0 0 1 .2-.22c.12-.07.35-.4.35-.5 0-.15.06-.25.26-.44.18-.17.22-.22.33-.5.17-.41.23-.68.29-1.22.06-.66.06-1.46-.02-1.96-.13-.82-.6-3.09-.75-3.54a5.41 5.41 0 0 1-.23-1.01c0-.04.06-.04.31-.02.23.01.41 0 .68-.03.31-.05.42-.05.75-.02l.4.05c.02.02.5 1.55.58 1.87.16.64.16.68.2 2.3l.03 2.22c.01.64.02.7.1 1 .1.35.2.58.42.9l.3.49c.15.29.35.52.61.72.34.26.67.47.87.56.24.11.44.29.63.56l.25.34c.07.07.14.19.18.26.05.12.07.13.4.23.16.05.58.06.82.02.13-.03.18-.06.39-.26.28-.28.42-.47.42-.6 0-.22.03-.29.15-.34.08-.03.12-.06.12-.1a5.03 5.03 0 0 0-.3-1.18c-.07-.13-.95-1.32-1.69-2.28a6.89 6.89 0 0 1-1.22-1.93 29.2 29.2 0 0 1-.37-2.15 8.4 8.4 0 0 0-.53-1.92c-.1-.23-.16-.42-.14-.42.07 0 1.65.44 1.74.49l.53.28c.23.14.45.24.5.24.04 0 .23.1.46.26l.39.26.2-.01c.3-.03.35-.04.47-.13.17-.12.28-.14.42-.07.26.12.45.14.28.03-.24-.17-.26-.25-.12-.46.17-.26.19-.28.36-.37.28-.14.3-.17.39-.68a3.26 3.26 0 0 1 .13-.53.26.26 0 0 0-.07-.35 2.1 2.1 0 0 1-.23-.3c-.1-.14-.12-.21-.12-.32 0-.12-.01-.14-.1-.2a1.31 1.31 0 0 0-.22-.1c-.13-.05-.34-.27-.31-.33a2.32 2.32 0 0 0 .03-.08c.03-.07-.22-.2-.47-.26s-.24-.06-.2-.1c.03-.03.03-.13 0-.3-.08-.85-.42-1.44-1-1.73a1.17 1.17 0 0 1-.23-.15 4.06 4.06 0 0 0-1.18-.45 7.58 7.58 0 0 1-.55-.14 4.87 4.87 0 0 0-.61-.12 8.64 8.64 0 0 1-1.28-.2 5.71 5.71 0 0 0-.53-.13c-.2-.03-.36-.07-.37-.09s-.09-.01-.19 0c-.11.03-.29.03-.56 0a15.49 15.49 0 0 0-1.2-.03c-.67 0-.86 0-1.2-.06a5.03 5.03 0 0 0-.66-.07c-.34 0-1.33-.1-1.15-.12l.2-.03c.14-.03.15-.04.12-.1s-.04-.07-.47-.06c-.37 0-.46 0-.48.05s-.07.04-.2.01c-.15-.03-.15-.03-.1-.07s.04-.05 0-.07a.22.22 0 0 0-.1-.03 309.42 309.42 0 0 1-2.75-.28l-.3-.05.03-.01c.03 0 .05-.01.05-.03 0-.05-.15-.06-.37-.02-.15.02-.23.02-.28 0-.05-.03-.04-.03.1-.02.29.03.17-.04-.14-.08l-.38-.05a.49.49 0 0 1-.14-.04 6.27 6.27 0 0 0-.75-.13 9.13 9.13 0 0 1-.95-.17c-.5-.14-.95-.37-1.21-.61l-.14-.12.05-.12a.86.86 0 0 1 .46-.5c.31-.15.46-.17 1.07-.2.56 0 .7-.03.63-.1a2.2 2.2 0 0 0-.7-.11c-.13 0-.47-.07-.79-.16a1.23 1.23 0 0 0-.4-.05zm8.85 2.95a.3.3 0 0 0-.07 0 .72.72 0 0 0-.37.16l-.1.07h.15a.45.45 0 0 0 .35-.13c.07-.06.09-.1.04-.1zm5.78.95a.53.53 0 0 1 .16.03.58.58 0 0 0 .22.03c.03 0 .07 0 .08.02s-.03.03-.18.02c-.14-.02-.2-.02-.2 0s.03.05.08.06c.22.04.26.07.07.05a5.68 5.68 0 0 0-.37-.02c-.16 0-.17 0-.18.08 0 .07-.03.08-.18.11-.2.04-.18.05-.33-.02a3.55 3.55 0 0 0-.82-.2c-.14-.02-.2-.04-.16-.05a8.55 8.55 0 0 1 .63.08c.54.07.7.09.66.05a5.5 5.5 0 0 0-.53-.12l-.52-.1h.3c.27 0 .31 0 .4.07.06.05.1.05.12.03s.11-.03.26-.02c.2.02.24.01.35-.05a.35.35 0 0 1 .14-.05zm-4.35.51.03.01c.02.01 0 .03-.02.05-.06.04-.08.04-.1 0-.02-.02.04-.05.09-.06zm4.99.1.03.03a.15.15 0 0 0 .1.05c.05 0 .05 0 .01.03a.19.19 0 0 1-.06.03c-.06 0-.1-.04-.1-.1 0-.03.01-.04.02-.05zm-3.96.17c-.06 0-.1.06-.1.13 0 .02.07.03.16.03.14 0 .15 0 .11-.05-.06-.08-.1-.1-.17-.1zm6.2 1.83c.02 0 .07.02.11.05.07.05.07.06.01.05-.08 0-.18-.07-.13-.1z" fill="#ffffff" class="color000 svgShape"></path></svg></g></svg>